<?xml version="1.0" standalone="no"?>
<!DOCTYPE svg PUBLIC "-//W3C//DTD SVG 20010904//EN"
 "http://www.w3.org/TR/2001/REC-SVG-20010904/DTD/svg10.dtd">
<svg version="1.0" xmlns="http://www.w3.org/2000/svg"
 width="128.000000pt" height="128.000000pt" viewBox="0 0 128.000000 128.000000"
 preserveAspectRatio="xMidYMid meet">
<metadata>
Created by potrace 1.11, written by Peter Selinger 2001-2013
</metadata>
<g transform="translate(0.000000,128.000000) scale(0.100000,-0.100000)"
fill="#000000" stroke="none">
<path d="M231 1247 c-20 -20 -12 -35 45 -94 86 -88 89 -95 71 -148 -7 -22 -54
-54 -88 -60 -30 -6 -50 7 -124 81 l-66 66 -20 -26 c-11 -14 -18 -30 -14 -36 3
-5 8 -19 10 -29 7 -38 75 -166 100 -189 38 -36 116 -62 185 -61 67 1 85 -9
189 -106 171 -160 266 -265 376 -415 38 -52 74 -100 80 -106 5 -6 25 -27 43
-47 63 -71 120 -89 182 -57 64 33 88 89 63 150 -22 55 -23 56 -303 278 -53 42
-314 303 -350 350 -14 18 -33 43 -43 54 -21 26 -25 42 -31 128 -8 122 -38 168
-144 220 -116 58 -143 65 -161 47z m979 -1093 c0 -21 -34 -63 -55 -68 -29 -7
-74 2 -76 15 -1 5 -2 15 -3 22 -3 18 16 39 49 53 24 10 35 10 57 -2 16 -8 28
-17 28 -20z"/>
</g>
</svg>
